<?xml version="1.0" encoding="UTF-8" standalone="no"?>
<svg
   xmlns:dc="http://purl.org/dc/elements/1.1/"
   xmlns:cc="http://creativecommons.org/ns#"
   xmlns:rdf="http://www.w3.org/1999/02/22-rdf-syntax-ns#"
   xmlns:svg="http://www.w3.org/2000/svg"
   xmlns="http://www.w3.org/2000/svg"
   id="svg8"
   version="1.1"
   viewBox="0 0 10.597415 9.5250301"
   height="9.5250301mm"
   width="10.597415mm">
  <defs
     id="defs2" />
  <metadata
     id="metadata5">
    <rdf:RDF>
      <cc:Work
         rdf:about="">
        <dc:format>image/svg+xml</dc:format>
        <dc:type
           rdf:resource="http://purl.org/dc/dcmitype/StillImage" />
        <dc:title></dc:title>
      </cc:Work>
    </rdf:RDF>
  </metadata>
  <g
     transform="translate(-186.30558,-245.69697)"
     id="layer1">
    <path
       id="path23"
       d="m 195.68071,254.38866 c -0.35629,-0.24694 -0.55012,-0.4365 -0.86328,-0.52698 -0.62984,-0.18197 -1.60723,-0.0713 -4.27206,-0.11926 l -4.22679,0.0145 -0.005,-4.0912 -0.008,-3.96875 5.23571,0.006 5.34762,-0.006 c 0,0 0.0348,2.65782 -0.005,5.07405 l 0.005,4.45098 z m 0.1496,-4.72294 v -2.91042 h -4.23333 -4.23334 v 2.91042 2.91042 h 4.23334 4.23333 z m -6.35,1.05833 c 0,-0.48507 0.17639,-0.52916 2.11667,-0.52916 1.94027,0 2.11666,0.0441 2.11666,0.52916 0,0.48507 -0.17639,0.52917 -2.11666,0.52917 -1.94028,0 -2.11667,-0.0441 -2.11667,-0.52917 z m 0,-2.11666 c 0,-0.35278 0.17639,-0.52917 0.52917,-0.52917 0.35277,0 0.52916,0.17639 0.52916,0.52917 0,0.35277 -0.17639,0.52916 -0.52916,0.52916 -0.35278,0 -0.52917,-0.17639 -0.52917,-0.52916 z m 3.175,0 c 0,-0.35278 0.17639,-0.52917 0.52917,-0.52917 0.35277,0 0.52916,0.17639 0.52916,0.52917 0,0.35277 -0.17639,0.52916 -0.52916,0.52916 -0.35278,0 -0.52917,-0.17639 -0.52917,-0.52916 z"
       style="fill:#878787;stroke-width:0.26458332" />
  </g>
</svg>
